<svg xmlns="http://www.w3.org/2000/svg" xmlns:xlink="http://www.w3.org/1999/xlink" width="500" zoomAndPan="magnify" viewBox="0 0 375 374.999991" height="500" preserveAspectRatio="xMidYMid meet" version="1.0"><defs><g/></defs><g fill="#bfaff2" fill-opacity="1"><g transform="translate(88.983007, 195.831126)"><g><path d="M 36.28125 16.703125 C 36.53125 18.515625 36.285156 20.191406 35.546875 21.734375 C 34.816406 23.285156 33.796875 24.640625 32.484375 25.796875 C 31.617188 26.554688 30.726562 27.300781 29.8125 28.03125 C 28.90625 28.769531 28 29.492188 27.09375 30.203125 C 26.632812 30.554688 26.191406 30.910156 25.765625 31.265625 C 25.335938 31.617188 24.894531 31.972656 24.4375 32.328125 C 24.539062 32.222656 24.503906 32.234375 24.328125 32.359375 C 24.148438 32.492188 23.992188 32.609375 23.859375 32.703125 C 23.734375 32.804688 23.773438 32.785156 23.984375 32.640625 C 25.347656 31.472656 26.34375 30.03125 26.96875 28.3125 C 27.601562 26.59375 27.742188 24.847656 27.390625 23.078125 C 27.191406 22.160156 26.898438 21.257812 26.515625 20.375 C 26.140625 19.488281 25.75 18.617188 25.34375 17.765625 C 25.289062 17.660156 25.609375 17.328125 26.296875 16.765625 C 26.984375 16.210938 27.703125 15.671875 28.453125 15.140625 C 29.210938 14.609375 29.644531 14.289062 29.75 14.1875 C 29.851562 14.09375 30.128906 13.878906 30.578125 13.546875 C 31.035156 13.210938 31.539062 12.832031 32.09375 12.40625 C 32.65625 11.976562 33.140625 11.597656 33.546875 11.265625 C 33.953125 10.941406 34.15625 10.753906 34.15625 10.703125 C 34.5625 11.660156 34.988281 12.632812 35.4375 13.625 C 35.894531 14.613281 36.175781 15.640625 36.28125 16.703125 Z M 45.234375 2.578125 C 45.640625 3.535156 46.066406 4.507812 46.515625 5.5 C 46.972656 6.488281 47.253906 7.515625 47.359375 8.578125 C 47.609375 10.398438 47.363281 12.082031 46.625 13.625 C 45.894531 15.164062 44.875 16.519531 43.5625 17.6875 C 42.695312 18.445312 41.804688 19.191406 40.890625 19.921875 C 39.984375 20.648438 39.078125 21.367188 38.171875 22.078125 C 37.710938 22.429688 37.269531 22.785156 36.84375 23.140625 C 36.414062 23.492188 35.972656 23.847656 35.515625 24.203125 C 35.617188 24.109375 35.582031 24.125 35.40625 24.25 C 35.226562 24.375 35.078125 24.484375 34.953125 24.578125 C 34.828125 24.679688 34.863281 24.660156 35.0625 24.515625 C 36.476562 23.347656 37.488281 21.90625 38.09375 20.1875 C 38.695312 18.46875 38.820312 16.722656 38.46875 14.953125 C 38.269531 14.035156 37.976562 13.132812 37.59375 12.25 C 37.21875 11.363281 36.828125 10.519531 36.421875 9.71875 C 36.378906 9.5625 36.695312 9.21875 37.375 8.6875 C 38.0625 8.15625 38.78125 7.609375 39.53125 7.046875 C 40.289062 6.492188 40.722656 6.171875 40.828125 6.078125 C 40.929688 5.972656 41.207031 5.753906 41.65625 5.421875 C 42.113281 5.097656 42.617188 4.71875 43.171875 4.28125 C 43.734375 3.851562 44.21875 3.472656 44.625 3.140625 C 45.03125 2.816406 45.234375 2.628906 45.234375 2.578125 Z M 50.15625 -24.4375 C 51.726562 -23.726562 53.082031 -22.691406 54.21875 -21.328125 C 55.363281 -19.960938 56.414062 -18.46875 57.375 -16.84375 C 58.332031 -15.226562 59.316406 -13.695312 60.328125 -12.25 C 61.335938 -10.8125 62.515625 -9.609375 63.859375 -8.640625 C 65.203125 -7.679688 66.832031 -7.179688 68.75 -7.140625 C 68.65625 -7.140625 68.453125 -6.984375 68.140625 -6.671875 C 67.835938 -6.367188 67.640625 -6.171875 67.546875 -6.078125 C 67.035156 -5.617188 66.523438 -5.171875 66.015625 -4.734375 C 65.515625 -4.304688 64.988281 -3.890625 64.4375 -3.484375 C 64.175781 -3.285156 63.753906 -2.90625 63.171875 -2.34375 C 62.597656 -1.789062 62.019531 -1.257812 61.4375 -0.75 C 60.851562 -0.25 60.382812 0 60.03125 0 C 58.007812 -0.0507812 56.300781 -0.617188 54.90625 -1.703125 C 53.507812 -2.796875 52.28125 -4.140625 51.21875 -5.734375 C 50.15625 -7.328125 49.128906 -8.941406 48.140625 -10.578125 C 47.160156 -12.222656 46.0625 -13.65625 44.84375 -14.875 C 42.976562 -16.695312 40.851562 -17.785156 38.46875 -18.140625 C 36.09375 -18.492188 33.664062 -18.390625 31.1875 -17.828125 C 30.382812 -17.679688 29.5625 -17.476562 28.71875 -17.21875 C 27.882812 -16.96875 27.066406 -16.691406 26.265625 -16.390625 C 28.035156 -16.242188 29.929688 -15.96875 31.953125 -15.5625 C 33.972656 -15.15625 35.90625 -14.546875 37.75 -13.734375 C 39.601562 -12.921875 41.171875 -11.859375 42.453125 -10.546875 C 43.742188 -9.234375 44.539062 -7.613281 44.84375 -5.6875 C 45.101562 -4.269531 44.890625 -2.953125 44.203125 -1.734375 C 43.523438 -0.523438 42.675781 0.503906 41.65625 1.359375 C 39.84375 3.035156 37.910156 4.734375 35.859375 6.453125 C 33.804688 8.171875 31.671875 9.613281 29.453125 10.78125 C 27.273438 11.84375 24.804688 12.613281 22.046875 13.09375 C 19.285156 13.570312 16.578125 13.582031 13.921875 13.125 C 11.265625 12.675781 8.953125 11.613281 6.984375 9.9375 C 5.316406 8.46875 4.039062 6.75 3.15625 4.78125 C 2.269531 2.8125 1.75 0.738281 1.59375 -1.4375 C 1.4375 -3.613281 1.5625 -5.765625 1.96875 -7.890625 C 2.625 -11.023438 3.738281 -13.929688 5.3125 -16.609375 C 6.882812 -19.296875 8.753906 -21.789062 10.921875 -24.09375 C 13.097656 -26.394531 15.378906 -28.535156 17.765625 -30.515625 C 19.734375 -32.179688 21.804688 -33.875 23.984375 -35.59375 C 23.878906 -35.539062 24.066406 -35.691406 24.546875 -36.046875 C 25.023438 -36.398438 25.265625 -36.578125 25.265625 -36.578125 C 25.265625 -36.578125 25.0625 -36.410156 24.65625 -36.078125 C 24.257812 -35.753906 24.035156 -35.566406 23.984375 -35.515625 C 21.648438 -33.597656 19.5 -31.398438 17.53125 -28.921875 C 15.5625 -26.441406 13.929688 -23.769531 12.640625 -20.90625 C 11.347656 -18.050781 10.578125 -15.054688 10.328125 -11.921875 C 10.117188 -9.128906 10.46875 -6.367188 11.375 -3.640625 C 12.289062 -0.910156 13.863281 1.335938 16.09375 3.109375 C 17.863281 4.472656 19.875 5.382812 22.125 5.84375 C 24.375 6.300781 26.6875 6.398438 29.0625 6.140625 C 31.445312 5.890625 33.648438 5.410156 35.671875 4.703125 C 35.671875 4.648438 35.679688 4.597656 35.703125 4.546875 C 35.734375 4.503906 35.75 4.457031 35.75 4.40625 C 36.15625 3.34375 36.253906 2.300781 36.046875 1.28125 C 35.847656 0.269531 35.441406 -0.6875 34.828125 -1.59375 C 33.460938 -3.664062 31.65625 -5.257812 29.40625 -6.375 C 27.15625 -7.488281 24.75 -8.257812 22.1875 -8.6875 C 19.632812 -9.113281 17.222656 -9.328125 14.953125 -9.328125 C 14.953125 -9.328125 14.953125 -9.335938 14.953125 -9.359375 C 14.953125 -9.390625 14.976562 -9.429688 15.03125 -9.484375 C 16.144531 -10.492188 17.269531 -11.492188 18.40625 -12.484375 C 19.539062 -13.472656 20.691406 -14.421875 21.859375 -15.328125 C 22.003906 -15.484375 22.15625 -15.625 22.3125 -15.75 C 22.46875 -15.875 22.617188 -15.988281 22.765625 -16.09375 C 23.878906 -16.945312 25.003906 -17.765625 26.140625 -18.546875 C 27.285156 -19.335938 28.4375 -20.085938 29.59375 -20.796875 C 31.519531 -21.960938 33.65625 -23 36 -23.90625 C 38.351562 -24.8125 40.769531 -25.378906 43.25 -25.609375 C 45.726562 -25.835938 48.03125 -25.445312 50.15625 -24.4375 Z M 14.953125 -9.328125 C 15.253906 -9.535156 15.484375 -9.710938 15.640625 -9.859375 C 15.585938 -9.859375 15.5625 -9.847656 15.5625 -9.828125 C 15.5625 -9.804688 15.5625 -9.796875 15.5625 -9.796875 C 15.457031 -9.742188 15.351562 -9.675781 15.25 -9.59375 C 15.15625 -9.519531 15.054688 -9.429688 14.953125 -9.328125 Z M 14.953125 -9.328125 "/></g></g></g><g fill="#bfaff2" fill-opacity="1"><g transform="translate(153.336921, 195.831126)"><g><path d="M 3.484375 -19.421875 C 3.585938 -19.523438 3.550781 -19.515625 3.375 -19.390625 C 3.195312 -19.265625 3.046875 -19.148438 2.921875 -19.046875 C 2.796875 -18.941406 2.832031 -18.96875 3.03125 -19.125 C 4.445312 -20.289062 5.457031 -21.734375 6.0625 -23.453125 C 6.675781 -25.171875 6.804688 -26.914062 6.453125 -28.6875 C 6.242188 -29.59375 5.953125 -30.488281 5.578125 -31.375 C 5.203125 -32.257812 4.8125 -33.109375 4.40625 -33.921875 C 4.351562 -34.078125 4.664062 -34.421875 5.34375 -34.953125 C 6.03125 -35.484375 6.753906 -36.023438 7.515625 -36.578125 C 8.273438 -37.128906 8.703125 -37.457031 8.796875 -37.5625 C 8.898438 -37.664062 9.179688 -37.878906 9.640625 -38.203125 C 10.097656 -38.535156 10.601562 -38.914062 11.15625 -39.34375 C 11.707031 -39.78125 12.1875 -40.160156 12.59375 -40.484375 C 13 -40.816406 13.203125 -41.007812 13.203125 -41.0625 C 13.609375 -40.09375 14.035156 -39.113281 14.484375 -38.125 C 14.941406 -37.144531 15.222656 -36.125 15.328125 -35.0625 C 15.578125 -33.238281 15.335938 -31.554688 14.609375 -30.015625 C 13.878906 -28.472656 12.851562 -27.117188 11.53125 -25.953125 C 10.675781 -25.191406 9.789062 -24.441406 8.875 -23.703125 C 7.96875 -22.972656 7.054688 -22.253906 6.140625 -21.546875 C 5.691406 -21.191406 5.25 -20.835938 4.8125 -20.484375 C 4.382812 -20.128906 3.941406 -19.773438 3.484375 -19.421875 Z M 3.484375 -35.890625 C 3.585938 -35.992188 3.550781 -35.96875 3.375 -35.8125 C 3.195312 -35.664062 3.046875 -35.550781 2.921875 -35.46875 C 2.796875 -35.394531 2.832031 -35.4375 3.03125 -35.59375 C 4.445312 -36.757812 5.457031 -38.203125 6.0625 -39.921875 C 6.675781 -41.640625 6.804688 -43.382812 6.453125 -45.15625 C 6.242188 -46.0625 5.953125 -46.957031 5.578125 -47.84375 C 5.203125 -48.726562 4.8125 -49.578125 4.40625 -50.390625 C 4.351562 -50.546875 4.664062 -50.890625 5.34375 -51.421875 C 6.03125 -51.953125 6.753906 -52.492188 7.515625 -53.046875 C 8.273438 -53.597656 8.703125 -53.925781 8.796875 -54.03125 C 8.898438 -54.082031 9.179688 -54.285156 9.640625 -54.640625 C 10.097656 -54.992188 10.601562 -55.382812 11.15625 -55.8125 C 11.707031 -56.25 12.1875 -56.628906 12.59375 -56.953125 C 13 -57.285156 13.203125 -57.476562 13.203125 -57.53125 C 13.609375 -56.5625 14.035156 -55.570312 14.484375 -54.5625 C 14.941406 -53.550781 15.222656 -52.515625 15.328125 -51.453125 C 15.578125 -49.679688 15.335938 -48.023438 14.609375 -46.484375 C 13.878906 -44.941406 12.851562 -43.585938 11.53125 -42.421875 C 10.675781 -41.660156 9.789062 -40.910156 8.875 -40.171875 C 7.96875 -39.441406 7.054688 -38.722656 6.140625 -38.015625 C 5.691406 -37.660156 5.25 -37.304688 4.8125 -36.953125 C 4.382812 -36.597656 3.941406 -36.242188 3.484375 -35.890625 Z M 19.953125 -24.4375 C 20.003906 -22.613281 20.257812 -20.703125 20.71875 -18.703125 C 21.175781 -16.703125 21.867188 -14.816406 22.796875 -13.046875 C 23.734375 -11.273438 24.972656 -9.847656 26.515625 -8.765625 C 28.066406 -7.679688 29.929688 -7.140625 32.109375 -7.140625 C 32.003906 -7.140625 31.785156 -6.984375 31.453125 -6.671875 C 31.128906 -6.367188 30.914062 -6.171875 30.8125 -6.078125 C 30.300781 -5.617188 29.789062 -5.171875 29.28125 -4.734375 C 28.78125 -4.304688 28.253906 -3.890625 27.703125 -3.484375 C 27.453125 -3.285156 27.046875 -2.90625 26.484375 -2.34375 C 25.929688 -1.789062 25.347656 -1.257812 24.734375 -0.75 C 24.128906 -0.25 23.648438 0 23.296875 0 C 20.765625 0 18.664062 -0.742188 17 -2.234375 C 15.332031 -3.734375 14.039062 -5.546875 13.125 -7.671875 C 12.675781 -7.316406 12.222656 -6.972656 11.765625 -6.640625 C 11.304688 -6.304688 10.875 -5.941406 10.46875 -5.546875 C 9.507812 -4.785156 8.535156 -3.972656 7.546875 -3.109375 C 6.566406 -2.253906 5.492188 -1.546875 4.328125 -0.984375 C 3.015625 -0.328125 1.597656 0 0.078125 0 C -1.441406 0 -2.9375 0 -4.40625 0 C -4.300781 0 -4.082031 -0.160156 -3.75 -0.484375 C -3.425781 -0.816406 -3.210938 -1.007812 -3.109375 -1.0625 C -2.609375 -1.46875 -2.101562 -1.882812 -1.59375 -2.3125 C -1.082031 -2.738281 -0.578125 -3.179688 -0.078125 -3.640625 C 0.222656 -3.847656 0.648438 -4.226562 1.203125 -4.78125 C 1.765625 -5.332031 2.347656 -5.863281 2.953125 -6.375 C 3.566406 -6.882812 4.050781 -7.140625 4.40625 -7.140625 C 5.257812 -7.140625 6.113281 -7.125 6.96875 -7.09375 C 7.832031 -7.070312 8.695312 -7.085938 9.5625 -7.140625 C 10.164062 -8.753906 10.609375 -10.421875 10.890625 -12.140625 C 11.171875 -13.859375 11.257812 -15.578125 11.15625 -17.296875 C 11.15625 -17.609375 11.484375 -18.015625 12.140625 -18.515625 C 12.796875 -19.023438 13.476562 -19.503906 14.1875 -19.953125 C 14.894531 -20.410156 15.351562 -20.71875 15.5625 -20.875 C 15.613281 -20.925781 15.863281 -21.101562 16.3125 -21.40625 Z M 19.953125 -24.4375 "/></g></g></g><g fill="#bfaff2" fill-opacity="1"><g transform="translate(181.036415, 195.831126)"><g><path d="M 19.953125 -24.4375 C 20.003906 -22.613281 20.257812 -20.703125 20.71875 -18.703125 C 21.175781 -16.703125 21.867188 -14.816406 22.796875 -13.046875 C 23.734375 -11.273438 24.972656 -9.847656 26.515625 -8.765625 C 28.066406 -7.679688 29.929688 -7.140625 32.109375 -7.140625 C 32.003906 -7.140625 31.785156 -6.984375 31.453125 -6.671875 C 31.128906 -6.367188 30.914062 -6.171875 30.8125 -6.078125 C 30.300781 -5.617188 29.789062 -5.171875 29.28125 -4.734375 C 28.78125 -4.304688 28.253906 -3.890625 27.703125 -3.484375 C 27.453125 -3.285156 27.046875 -2.90625 26.484375 -2.34375 C 25.929688 -1.789062 25.347656 -1.257812 24.734375 -0.75 C 24.128906 -0.25 23.648438 0 23.296875 0 C 20.765625 0 18.664062 -0.742188 17 -2.234375 C 15.332031 -3.734375 14.039062 -5.546875 13.125 -7.671875 C 12.675781 -7.316406 12.222656 -6.972656 11.765625 -6.640625 C 11.304688 -6.304688 10.875 -5.941406 10.46875 -5.546875 C 9.507812 -4.785156 8.535156 -3.972656 7.546875 -3.109375 C 6.566406 -2.253906 5.492188 -1.546875 4.328125 -0.984375 C 3.015625 -0.328125 1.597656 0 0.078125 0 C -1.441406 0 -2.9375 0 -4.40625 0 C -4.300781 0 -4.082031 -0.160156 -3.75 -0.484375 C -3.425781 -0.816406 -3.210938 -1.007812 -3.109375 -1.0625 C -2.609375 -1.46875 -2.101562 -1.882812 -1.59375 -2.3125 C -1.082031 -2.738281 -0.578125 -3.179688 -0.078125 -3.640625 C 0.222656 -3.847656 0.648438 -4.226562 1.203125 -4.78125 C 1.765625 -5.332031 2.347656 -5.863281 2.953125 -6.375 C 3.566406 -6.882812 4.050781 -7.140625 4.40625 -7.140625 C 5.257812 -7.140625 6.113281 -7.125 6.96875 -7.09375 C 7.832031 -7.070312 8.695312 -7.085938 9.5625 -7.140625 C 10.164062 -8.753906 10.609375 -10.421875 10.890625 -12.140625 C 11.171875 -13.859375 11.257812 -15.578125 11.15625 -17.296875 C 11.15625 -17.609375 11.484375 -18.015625 12.140625 -18.515625 C 12.796875 -19.023438 13.476562 -19.503906 14.1875 -19.953125 C 14.894531 -20.410156 15.351562 -20.71875 15.5625 -20.875 C 15.613281 -20.925781 15.863281 -21.101562 16.3125 -21.40625 Z M 6 -23.75 L 6.828125 -24.4375 L 6.375 -23.984375 C 6.882812 -24.335938 7.441406 -24.691406 8.046875 -25.046875 C 6.628906 -26.160156 5.804688 -27.648438 5.578125 -29.515625 C 5.347656 -31.390625 6.019531 -33.113281 7.59375 -34.6875 C 8.550781 -35.644531 9.6875 -36.679688 11 -37.796875 C 12.320312 -38.910156 13.613281 -39.691406 14.875 -40.140625 C 15.832031 -40.492188 16.753906 -40.519531 17.640625 -40.21875 C 18.523438 -39.914062 19.109375 -39.410156 19.390625 -38.703125 C 19.671875 -37.992188 19.328125 -37.160156 18.359375 -36.203125 C 17.554688 -35.390625 16.671875 -34.664062 15.703125 -34.03125 C 14.742188 -33.40625 13.882812 -32.6875 13.125 -31.875 C 13.988281 -32.738281 14.269531 -33.675781 13.96875 -34.6875 C 13.664062 -35.695312 12.851562 -36.203125 11.53125 -36.203125 C 11.476562 -36.203125 11.425781 -36.203125 11.375 -36.203125 C 11.332031 -36.203125 11.257812 -36.203125 11.15625 -36.203125 C 10.695312 -34.734375 10.679688 -33.363281 11.109375 -32.09375 C 11.546875 -30.832031 12.332031 -29.832031 13.46875 -29.09375 C 14.601562 -28.363281 15.90625 -27.972656 17.375 -27.921875 L 15.109375 -26.109375 C 15.054688 -26.054688 15.003906 -25.988281 14.953125 -25.90625 C 14.898438 -25.832031 14.847656 -25.773438 14.796875 -25.734375 C 14.546875 -25.523438 14.128906 -25.128906 13.546875 -24.546875 C 12.960938 -23.960938 12.492188 -23.648438 12.140625 -23.609375 C 10.421875 -23.453125 8.660156 -23.15625 6.859375 -22.71875 C 5.066406 -22.289062 3.4375 -21.570312 1.96875 -20.5625 L 2.578125 -20.953125 L 3.109375 -21.40625 C 2.753906 -21.144531 2.410156 -20.875 2.078125 -20.59375 C 1.753906 -20.320312 1.414062 -20.035156 1.0625 -19.734375 C 2.632812 -21.203125 4.28125 -22.539062 6 -23.75 Z M 6 -23.75 "/></g></g></g><g fill="#bfaff2" fill-opacity="1"><g transform="translate(208.73591, 195.831126)"><g><path d="M 19.953125 -24.4375 C 20.003906 -22.613281 20.257812 -20.703125 20.71875 -18.703125 C 21.175781 -16.703125 21.867188 -14.816406 22.796875 -13.046875 C 23.734375 -11.273438 24.972656 -9.847656 26.515625 -8.765625 C 28.066406 -7.679688 29.929688 -7.140625 32.109375 -7.140625 C 32.003906 -7.140625 31.785156 -6.984375 31.453125 -6.671875 C 31.128906 -6.367188 30.914062 -6.171875 30.8125 -6.078125 C 30.300781 -5.617188 29.789062 -5.171875 29.28125 -4.734375 C 28.78125 -4.304688 28.253906 -3.890625 27.703125 -3.484375 C 27.453125 -3.285156 27.046875 -2.90625 26.484375 -2.34375 C 25.929688 -1.789062 25.347656 -1.257812 24.734375 -0.75 C 24.128906 -0.25 23.648438 0 23.296875 0 C 20.765625 0 18.664062 -0.742188 17 -2.234375 C 15.332031 -3.734375 14.039062 -5.546875 13.125 -7.671875 C 12.675781 -7.316406 12.222656 -6.972656 11.765625 -6.640625 C 11.304688 -6.304688 10.875 -5.941406 10.46875 -5.546875 C 9.507812 -4.785156 8.535156 -3.972656 7.546875 -3.109375 C 6.566406 -2.253906 5.492188 -1.546875 4.328125 -0.984375 C 3.015625 -0.328125 1.597656 0 0.078125 0 C -1.441406 0 -2.9375 0 -4.40625 0 C -4.300781 0 -4.082031 -0.160156 -3.75 -0.484375 C -3.425781 -0.816406 -3.210938 -1.007812 -3.109375 -1.0625 C -2.609375 -1.46875 -2.101562 -1.882812 -1.59375 -2.3125 C -1.082031 -2.738281 -0.578125 -3.179688 -0.078125 -3.640625 C 0.222656 -3.847656 0.648438 -4.226562 1.203125 -4.78125 C 1.765625 -5.332031 2.347656 -5.863281 2.953125 -6.375 C 3.566406 -6.882812 4.050781 -7.140625 4.40625 -7.140625 C 5.257812 -7.140625 6.113281 -7.125 6.96875 -7.09375 C 7.832031 -7.070312 8.695312 -7.085938 9.5625 -7.140625 C 10.164062 -8.753906 10.609375 -10.421875 10.890625 -12.140625 C 11.171875 -13.859375 11.257812 -15.578125 11.15625 -17.296875 C 11.15625 -17.609375 11.484375 -18.015625 12.140625 -18.515625 C 12.796875 -19.023438 13.476562 -19.503906 14.1875 -19.953125 C 14.894531 -20.410156 15.351562 -20.71875 15.5625 -20.875 C 15.613281 -20.925781 15.863281 -21.101562 16.3125 -21.40625 Z M 5.609375 -19.890625 C 5.710938 -19.984375 5.6875 -19.953125 5.53125 -19.796875 C 5.382812 -19.648438 5.25 -19.523438 5.125 -19.421875 C 5 -19.328125 5.007812 -19.351562 5.15625 -19.5 C 6.570312 -20.664062 7.582031 -22.117188 8.1875 -23.859375 C 8.800781 -25.609375 8.929688 -27.367188 8.578125 -29.140625 C 8.367188 -30.054688 8.078125 -30.941406 7.703125 -31.796875 C 7.328125 -32.660156 6.960938 -33.519531 6.609375 -34.375 C 6.554688 -34.476562 6.867188 -34.804688 7.546875 -35.359375 C 8.234375 -35.921875 8.941406 -36.46875 9.671875 -37 C 10.410156 -37.53125 10.828125 -37.84375 10.921875 -37.9375 C 11.023438 -38.039062 11.304688 -38.269531 11.765625 -38.625 C 12.222656 -38.976562 12.738281 -39.367188 13.3125 -39.796875 C 13.894531 -40.234375 14.390625 -40.613281 14.796875 -40.9375 C 15.203125 -41.269531 15.40625 -41.460938 15.40625 -41.515625 C 15.8125 -40.546875 16.226562 -39.554688 16.65625 -38.546875 C 17.082031 -37.535156 17.375 -36.5 17.53125 -35.4375 C 17.726562 -33.664062 17.460938 -32.007812 16.734375 -30.46875 C 16.003906 -28.925781 14.976562 -27.570312 13.65625 -26.40625 C 12.800781 -25.644531 11.914062 -24.898438 11 -24.171875 C 10.09375 -23.441406 9.179688 -22.695312 8.265625 -21.9375 C 7.867188 -21.582031 7.441406 -21.226562 6.984375 -20.875 C 6.523438 -20.519531 6.066406 -20.191406 5.609375 -19.890625 Z M 5.609375 -19.890625 "/></g></g></g><g fill="#bfaff2" fill-opacity="1"><g transform="translate(236.435405, 195.831126)"><g><path d="M 35.0625 -6.078125 C 34.550781 -5.617188 34.039062 -5.171875 33.53125 -4.734375 C 33.03125 -4.304688 32.503906 -3.890625 31.953125 -3.484375 C 31.796875 -3.390625 31.578125 -3.203125 31.296875 -2.921875 C 31.023438 -2.640625 30.738281 -2.347656 30.4375 -2.046875 C 31.5 -0.429688 32.15625 1.332031 32.40625 3.25 C 32.65625 5.175781 32.453125 7.078125 31.796875 8.953125 C 31.296875 10.671875 30.3125 12.140625 28.84375 13.359375 C 28.84375 13.359375 28.851562 13.359375 28.875 13.359375 C 28.90625 13.359375 28.921875 13.332031 28.921875 13.28125 L 28.765625 13.4375 C 28.609375 13.53125 28.46875 13.640625 28.34375 13.765625 C 28.21875 13.898438 28.101562 14.015625 28 14.109375 C 26.738281 15.171875 25.460938 16.242188 24.171875 17.328125 C 22.878906 18.421875 21.550781 19.453125 20.1875 20.421875 C 19.070312 21.222656 17.804688 21.648438 16.390625 21.703125 C 14.972656 21.753906 13.679688 21.398438 12.515625 20.640625 C 10.347656 19.378906 8.578125 17.582031 7.203125 15.25 C 5.835938 12.925781 4.835938 10.382812 4.203125 7.625 C 3.578125 4.863281 3.238281 2.195312 3.1875 -0.375 C 1.925781 -0.226562 0.664062 -0.128906 -0.59375 -0.078125 C -1.863281 -0.0234375 -3.132812 0 -4.40625 0 C -4.300781 0 -4.082031 -0.160156 -3.75 -0.484375 C -3.425781 -0.816406 -3.210938 -1.007812 -3.109375 -1.0625 C -2.609375 -1.46875 -2.101562 -1.882812 -1.59375 -2.3125 C -1.082031 -2.738281 -0.578125 -3.179688 -0.078125 -3.640625 C 0.273438 -3.890625 0.859375 -4.40625 1.671875 -5.1875 C 2.484375 -5.976562 3.191406 -6.550781 3.796875 -6.90625 C 4.753906 -11.664062 6.625 -15.941406 9.40625 -19.734375 C 12.1875 -23.523438 15.347656 -27.015625 18.890625 -30.203125 C 18.890625 -30.253906 18.867188 -30.28125 18.828125 -30.28125 L 19.421875 -30.734375 C 20.691406 -31.847656 21.957031 -32.921875 23.21875 -33.953125 C 24.488281 -34.992188 25.753906 -35.992188 27.015625 -36.953125 C 27.117188 -37.054688 27.21875 -37.144531 27.3125 -37.21875 C 27.414062 -37.300781 27.519531 -37.363281 27.625 -37.40625 C 28.082031 -36.707031 28.488281 -35.988281 28.84375 -35.25 C 29.195312 -34.519531 29.523438 -33.773438 29.828125 -33.015625 C 30.640625 -31.140625 31.242188 -29.148438 31.640625 -27.046875 C 32.046875 -24.953125 32.109375 -22.890625 31.828125 -20.859375 C 31.554688 -18.835938 30.765625 -16.941406 29.453125 -15.171875 C 28.691406 -14.109375 27.789062 -13.160156 26.75 -12.328125 C 25.71875 -11.492188 24.691406 -10.671875 23.671875 -9.859375 C 23.066406 -9.359375 22.445312 -8.851562 21.8125 -8.34375 C 21.1875 -7.84375 20.644531 -7.414062 20.1875 -7.0625 C 19.375 -6.40625 18.550781 -5.769531 17.71875 -5.15625 C 16.882812 -4.550781 16.015625 -3.992188 15.109375 -3.484375 C 14.648438 -3.285156 14.203125 -3.097656 13.765625 -2.921875 C 13.335938 -2.742188 12.898438 -2.554688 12.453125 -2.359375 C 13.160156 2.046875 14.800781 6.097656 17.375 9.796875 C 18.1875 10.898438 19.125 11.867188 20.1875 12.703125 C 21.25 13.546875 22.390625 14.09375 23.609375 14.34375 C 23.960938 12.414062 23.820312 10.476562 23.1875 8.53125 C 22.550781 6.582031 21.550781 4.847656 20.1875 3.328125 C 18.820312 1.816406 17.148438 0.707031 15.171875 0 L 18.890625 -3.03125 C 19.046875 -3.132812 19.171875 -3.234375 19.265625 -3.328125 C 19.367188 -3.429688 19.445312 -3.507812 19.5 -3.5625 C 19.800781 -3.820312 20.226562 -4.226562 20.78125 -4.78125 C 21.34375 -5.332031 21.925781 -5.863281 22.53125 -6.375 C 23.144531 -6.882812 23.628906 -7.140625 23.984375 -7.140625 L 36.28125 -7.140625 C 36.175781 -7.140625 35.972656 -6.984375 35.671875 -6.671875 C 35.367188 -6.367188 35.164062 -6.171875 35.0625 -6.078125 Z M 12.0625 -11.078125 C 12.007812 -10.472656 11.972656 -9.863281 11.953125 -9.25 C 11.929688 -8.644531 11.921875 -8.039062 11.921875 -7.4375 C 15.203125 -7.738281 18.4375 -8.472656 21.625 -9.640625 C 22.082031 -10.492188 22.4375 -11.40625 22.6875 -12.375 C 23.394531 -15.15625 23.394531 -17.9375 22.6875 -20.71875 C 22.382812 -22.1875 21.976562 -23.613281 21.46875 -25 C 20.96875 -26.394531 20.363281 -27.722656 19.65625 -28.984375 C 19.550781 -28.835938 19.445312 -28.6875 19.34375 -28.53125 C 19.25 -28.382812 19.148438 -28.257812 19.046875 -28.15625 C 17.222656 -25.625 15.691406 -22.925781 14.453125 -20.0625 C 13.210938 -17.207031 12.414062 -14.210938 12.0625 -11.078125 Z M 12.0625 -11.078125 "/></g></g></g><g fill="#bfaff2" fill-opacity="1"><g transform="translate(268.308813, 195.831126)"><g><path d="M 16.015625 -15.859375 C 16.066406 -15.359375 16.078125 -14.828125 16.046875 -14.265625 C 16.023438 -13.710938 15.960938 -13.15625 15.859375 -12.59375 C 15.609375 -11.4375 15.085938 -10.414062 14.296875 -9.53125 C 13.515625 -8.644531 12.617188 -7.820312 11.609375 -7.0625 C 10.597656 -6.300781 9.660156 -5.566406 8.796875 -4.859375 C 7.484375 -3.796875 6.171875 -2.742188 4.859375 -1.703125 C 3.546875 -0.671875 2.003906 -0.101562 0.234375 0 C -0.523438 0.0507812 -1.296875 0.0625 -2.078125 0.03125 C -2.867188 0.0078125 -3.644531 0 -4.40625 0 C -4.300781 0 -4.082031 -0.160156 -3.75 -0.484375 C -3.425781 -0.816406 -3.210938 -1.007812 -3.109375 -1.0625 C -2.609375 -1.46875 -2.101562 -1.882812 -1.59375 -2.3125 C -1.082031 -2.738281 -0.578125 -3.15625 -0.078125 -3.5625 C 0.222656 -3.820312 0.648438 -4.226562 1.203125 -4.78125 C 1.765625 -5.332031 2.347656 -5.863281 2.953125 -6.375 C 3.566406 -6.882812 4.050781 -7.140625 4.40625 -7.140625 C 4.851562 -7.140625 5.316406 -7.125 5.796875 -7.09375 C 6.285156 -7.070312 6.753906 -7.0625 7.203125 -7.0625 C 7.460938 -8.570312 7.523438 -10.132812 7.390625 -11.75 C 7.265625 -13.375 7.203125 -14.847656 7.203125 -16.171875 L 7.203125 -29.828125 C 7.203125 -30.128906 7.519531 -30.53125 8.15625 -31.03125 C 8.789062 -31.539062 9.472656 -32.035156 10.203125 -32.515625 C 10.941406 -32.992188 11.410156 -33.3125 11.609375 -33.46875 C 11.816406 -33.625 12.273438 -33.941406 12.984375 -34.421875 C 13.691406 -34.898438 14.375 -35.390625 15.03125 -35.890625 C 15.6875 -36.398438 16.015625 -36.753906 16.015625 -36.953125 Z M -3.796875 -25.578125 C -3.691406 -25.679688 -3.710938 -25.664062 -3.859375 -25.53125 C -4.015625 -25.40625 -4.15625 -25.289062 -4.28125 -25.1875 C -4.414062 -25.09375 -4.40625 -25.117188 -4.25 -25.265625 C -2.832031 -26.429688 -1.816406 -27.875 -1.203125 -29.59375 C -0.597656 -31.3125 -0.472656 -33.054688 -0.828125 -34.828125 C -1.035156 -35.742188 -1.328125 -36.644531 -1.703125 -37.53125 C -2.085938 -38.414062 -2.484375 -39.257812 -2.890625 -40.0625 C -2.890625 -40.21875 -2.546875 -40.5625 -1.859375 -41.09375 C -1.171875 -41.625 -0.460938 -42.164062 0.265625 -42.71875 C 0.992188 -43.28125 1.410156 -43.613281 1.515625 -43.71875 C 1.671875 -43.8125 2.113281 -44.132812 2.84375 -44.6875 C 3.582031 -45.25 4.289062 -45.796875 4.96875 -46.328125 C 5.65625 -46.859375 5.972656 -47.148438 5.921875 -47.203125 C 6.328125 -46.242188 6.753906 -45.269531 7.203125 -44.28125 C 7.660156 -43.289062 7.941406 -42.265625 8.046875 -41.203125 C 8.296875 -39.378906 8.050781 -37.695312 7.3125 -36.15625 C 6.582031 -34.613281 5.5625 -33.265625 4.25 -32.109375 C 3.382812 -31.347656 2.5 -30.597656 1.59375 -29.859375 C 0.6875 -29.128906 -0.222656 -28.410156 -1.140625 -27.703125 C -1.597656 -27.347656 -2.039062 -26.992188 -2.46875 -26.640625 C -2.894531 -26.285156 -3.335938 -25.929688 -3.796875 -25.578125 Z M -3.796875 -42.046875 C -3.691406 -42.140625 -3.710938 -42.109375 -3.859375 -41.953125 C -4.015625 -41.804688 -4.15625 -41.695312 -4.28125 -41.625 C -4.414062 -41.550781 -4.40625 -41.585938 -4.25 -41.734375 C -2.832031 -42.898438 -1.816406 -44.34375 -1.203125 -46.0625 C -0.597656 -47.78125 -0.472656 -49.523438 -0.828125 -51.296875 C -1.035156 -52.210938 -1.328125 -53.113281 -1.703125 -54 C -2.085938 -54.882812 -2.484375 -55.726562 -2.890625 -56.53125 C -2.890625 -56.6875 -2.546875 -57.03125 -1.859375 -57.5625 C -1.171875 -58.09375 -0.460938 -58.632812 0.265625 -59.1875 C 0.992188 -59.75 1.410156 -60.082031 1.515625 -60.1875 C 1.671875 -60.28125 2.113281 -60.601562 2.84375 -61.15625 C 3.582031 -61.71875 4.289062 -62.265625 4.96875 -62.796875 C 5.65625 -63.328125 5.972656 -63.617188 5.921875 -63.671875 C 6.328125 -62.710938 6.753906 -61.722656 7.203125 -60.703125 C 7.660156 -59.691406 7.941406 -58.65625 8.046875 -57.59375 C 8.296875 -55.820312 8.050781 -54.164062 7.3125 -52.625 C 6.582031 -51.082031 5.5625 -49.726562 4.25 -48.5625 C 3.382812 -47.8125 2.5 -47.066406 1.59375 -46.328125 C 0.6875 -45.597656 -0.222656 -44.878906 -1.140625 -44.171875 C -1.597656 -43.816406 -2.039062 -43.460938 -2.46875 -43.109375 C -2.894531 -42.753906 -3.335938 -42.398438 -3.796875 -42.046875 Z M -3.796875 -42.046875 "/></g></g></g></svg>