<?xml version="1.0" standalone="no"?>
<!DOCTYPE svg PUBLIC "-//W3C//DTD SVG 20010904//EN"
 "http://www.w3.org/TR/2001/REC-SVG-20010904/DTD/svg10.dtd">
<svg version="1.0" xmlns="http://www.w3.org/2000/svg"
 width="482.000000pt" height="337.000000pt" viewBox="0 0 482.000000 337.000000"
 preserveAspectRatio="xMidYMid meet">

<g transform="translate(0.000000,337.000000) scale(0.100000,-0.100000)"
fill="#000000" stroke="none">
<path d="M0 1685 l0 -1685 2410 0 2410 0 0 1685 0 1685 -2410 0 -2410 0 0
-1685z m3973 1093 l75 -82 -41 -51 c-22 -27 -54 -64 -70 -82 l-30 -32 -67 59
-68 60 -65 -73 -66 -72 -71 71 -72 71 61 75 c89 111 82 109 147 49 30 -28 60
-51 64 -51 5 0 28 28 51 63 41 60 56 77 71 77 3 0 40 -37 81 -82z m-1434 -58
c59 -115 74 -172 67 -240 -8 -71 -35 -154 -70 -208 -14 -23 -26 -46 -26 -52 0
-5 -4 -10 -8 -10 -5 0 -7 13 -4 30 6 39 -14 149 -39 215 -11 29 -38 81 -61
116 l-41 64 28 52 c15 29 41 74 57 100 29 45 31 46 45 28 8 -11 32 -54 52 -95z
m-679 93 c1 -5 26 -36 58 -70 l57 -63 69 60 69 59 69 -60 c37 -34 68 -66 68
-73 -1 -6 -30 -42 -66 -80 l-65 -69 -68 67 -68 67 -71 -78 -71 -78 -72 71 -71
72 73 90 c69 85 89 103 89 85z m1451 -140 l-29 -59 -283 -122 c-156 -66 -285
-119 -288 -117 -2 2 9 29 24 59 l27 54 157 71 c149 68 413 179 418 176 2 -1
-10 -29 -26 -62z m-1641 -320 l82 -78 -72 -83 -72 -82 -83 64 -82 65 -53 -70
c-29 -38 -57 -72 -61 -75 -5 -3 -42 22 -84 55 -41 33 -83 64 -92 69 -14 8 -6
23 56 103 40 52 76 95 80 97 5 1 32 -19 62 -45 30 -26 64 -55 75 -65 21 -19
22 -19 74 51 32 43 59 71 70 71 11 0 55 -35 100 -77z m2365 -36 l89 -83 -28
-50 c-16 -27 -44 -70 -63 -96 l-35 -48 -46 44 c-26 25 -59 54 -74 65 l-27 21
-44 -69 c-25 -38 -50 -71 -55 -75 -5 -3 -37 14 -69 38 -33 24 -68 48 -79 54
-51 29 -51 25 15 126 35 53 65 96 68 96 2 0 34 -23 70 -51 l67 -51 22 27 c12
15 37 51 55 81 19 30 36 54 39 54 3 0 45 -37 95 -83z m-1974 -4 l66 -67 -70
-84 c-65 -77 -72 -83 -84 -65 -7 10 -36 41 -65 70 l-51 52 28 38 c53 71 96
123 103 123 4 0 37 -30 73 -67z m858 -133 c23 -12 51 -80 51 -124 0 -46 -36
-159 -60 -188 l-20 -23 1 45 c1 61 -22 110 -68 140 -21 13 -40 25 -42 27 -6 3
40 76 67 106 28 29 43 33 71 17z m-380 -114 l63 -63 -54 -81 c-29 -45 -57 -82
-62 -82 -9 0 -129 98 -134 110 -6 15 102 180 117 180 4 0 35 -29 70 -64z m932
17 c58 -34 108 -186 95 -286 -11 -83 -84 -225 -108 -211 -7 5 -8 2 -3 -5 4 -8
-12 -32 -48 -66 l-54 -53 111 -4 c99 -4 119 -8 186 -37 87 -38 143 -38 213 2
52 29 52 38 -8 171 l-44 99 33 56 c19 31 44 76 57 101 l22 45 19 -43 c28 -63
58 -189 58 -243 0 -156 -90 -328 -206 -393 -51 -28 -70 -32 -76 -15 -2 6 -4
-9 -4 -33 -1 -62 -65 -225 -95 -244 -8 -5 -9 -3 -4 5 6 10 3 11 -12 2 -11 -6
-24 -7 -28 -3 -5 4 -5 1 -1 -5 4 -8 2 -13 -6 -13 -8 0 -21 -9 -31 -20 -9 -11
-13 -20 -7 -20 5 0 13 8 19 17 5 10 13 15 17 11 4 -4 13 0 20 10 7 9 16 13 21
8 13 -13 -73 -81 -128 -101 -40 -14 -68 -16 -127 -12 -43 3 -85 8 -95 12 -17
7 -17 8 0 21 25 19 42 17 18 -3 -13 -10 -15 -14 -4 -10 9 3 22 1 29 -3 8 -5
19 -6 24 -2 6 3 0 9 -14 12 l-24 6 22 22 c12 12 28 22 35 22 7 0 3 -8 -8 -18
-11 -9 -18 -16 -16 -15 2 2 11 -3 19 -10 13 -10 15 -9 9 6 -4 11 -1 20 8 23
22 9 18 19 -9 22 -13 1 -29 -5 -36 -13 -6 -7 -17 -12 -24 -9 -8 3 -20 -1 -27
-8 -15 -14 -73 -18 -85 -5 -5 4 -1 5 9 1 13 -5 16 -2 11 10 -7 18 -20 21 -29
6 -9 -15 -60 18 -96 62 -63 79 -99 201 -94 315 0 17 -4 21 -20 18 -97 -21
-147 -25 -192 -14 -114 28 -163 85 -163 190 0 27 -3 49 -6 49 -3 0 -31 -22
-62 -50 -53 -47 -82 -64 -66 -38 4 7 3 8 -5 4 -6 -4 -9 -11 -6 -16 7 -11 -62
-53 -75 -45 -6 4 -9 1 -8 -5 4 -14 -94 -48 -140 -49 -40 -1 -95 25 -86 41 4 7
3 8 -5 4 -14 -9 -67 45 -87 91 -7 17 -18 71 -24 119 -10 93 -16 109 -31 82
-12 -21 -83 -47 -134 -49 -92 -4 -93 -3 -119 54 -12 28 -30 58 -40 66 -45 38
-353 -53 -465 -137 l-34 -25 76 -23 c42 -13 161 -37 264 -54 203 -33 261 -53
290 -96 21 -33 22 -97 3 -146 -27 -67 -93 -159 -153 -213 -57 -52 -87 -70 -71
-43 4 8 3 10 -2 5 -5 -5 -9 -14 -9 -20 0 -18 -267 -149 -365 -180 -135 -43
-341 -68 -391 -48 -13 5 -19 10 -12 10 6 1 20 4 30 7 15 5 16 4 3 -5 -12 -9
-11 -11 7 -8 12 2 26 7 30 12 5 4 2 5 -5 1 -7 -4 -15 -1 -18 8 -5 13 -10 12
-40 -5 -42 -23 -66 -25 -58 -4 4 8 1 15 -5 15 -6 0 -11 -4 -11 -10 0 -16 -27
-12 -34 5 -3 8 -13 15 -23 14 -16 0 -16 -2 2 -10 15 -7 12 -7 -13 -3 -18 3
-45 12 -60 20 -23 12 -24 14 -7 15 l20 0 -20 9 c-29 12 -37 12 -29 -2 5 -7 -7
-3 -26 9 -236 149 -299 551 -141 890 36 76 139 233 153 233 5 0 7 -3 5 -7 -3
-5 -21 -44 -42 -88 -99 -213 -135 -394 -100 -517 67 -242 254 -379 519 -380
225 0 509 95 694 234 74 55 62 66 -83 83 -292 34 -430 71 -469 127 -43 61 2
197 95 284 148 138 402 256 515 239 42 -6 45 -8 110 -87 18 -24 75 -23 122 1
20 10 63 47 96 80 32 34 59 61 61 59 1 -2 -2 -40 -7 -85 -19 -165 24 -288 118
-334 55 -26 102 -22 177 15 100 49 247 153 247 175 0 6 4 11 9 11 12 0 21 -36
21 -83 0 -70 43 -142 102 -173 63 -33 228 -1 228 44 0 30 35 125 85 230 77
162 139 251 218 313 56 45 108 52 158 22z m-828 -1064 c-43 -72 -55 -81 -153
-113 -41 -13 -160 -54 -265 -91 -275 -96 -362 -124 -382 -121 -10 2 -20 0 -23
-4 -3 -4 -15 -11 -28 -15 -23 -7 -23 -6 7 54 l31 60 122 40 c197 64 711 240
716 246 15 14 8 -1 -25 -56z m-1254 -440 l74 -80 -28 -29 c-16 -16 -32 -27
-37 -24 -5 3 -7 1 -6 -4 2 -5 -12 -28 -30 -51 -32 -40 -35 -42 -53 -25 -10 9
-15 22 -12 28 11 17 12 37 2 30 -5 -3 -7 -9 -4 -14 3 -5 1 -11 -4 -15 -5 -3
-25 8 -44 25 -19 16 -38 30 -43 30 -5 0 -34 -25 -64 -55 l-56 -56 -66 50 c-37
28 -70 55 -73 61 -7 11 13 41 82 128 l35 42 63 -50 c34 -27 65 -50 68 -50 3 0
30 32 61 70 31 39 58 70 60 70 1 0 35 -36 75 -81z"/>
<path d="M2810 2085 c-7 -9 -10 -18 -7 -21 3 -3 10 4 17 15 13 25 8 27 -10 6z"/>
<path d="M3283 1875 c-64 -28 -164 -209 -187 -341 l-5 -32 77 24 c110 34 178
70 234 124 56 54 62 90 25 154 -38 68 -91 94 -144 71z"/>
<path d="M1415 1780 c-3 -5 -1 -10 4 -10 6 0 11 5 11 10 0 6 -2 10 -4 10 -3 0
-8 -4 -11 -10z"/>
<path d="M3521 1436 c2 -2 18 -6 34 -10 22 -5 26 -4 15 4 -14 9 -59 15 -49 6z"/>
<path d="M1618 1423 c7 -3 16 -2 19 1 4 3 -2 6 -13 5 -11 0 -14 -3 -6 -6z"/>
<path d="M1755 1390 c3 -5 8 -10 11 -10 2 0 4 5 4 10 0 6 -5 10 -11 10 -5 0
-7 -4 -4 -10z"/>
<path d="M1780 1387 c0 -3 12 -12 26 -22 15 -9 23 -12 20 -6 -7 11 -46 35 -46
28z"/>
<path d="M2400 1370 c-9 -6 -10 -10 -3 -10 6 0 15 5 18 10 8 12 4 12 -15 0z"/>
<path d="M380 1360 c-9 -6 -10 -10 -3 -10 6 0 15 5 18 10 8 12 4 12 -15 0z"/>
<path d="M1140 1360 c8 -5 20 -10 25 -10 6 0 3 5 -5 10 -8 5 -19 10 -25 10 -5
0 -3 -5 5 -10z"/>
<path d="M3738 1363 c12 -2 30 -2 40 0 9 3 -1 5 -23 4 -22 0 -30 -2 -17 -4z"/>
<path d="M1257 1339 c7 -7 15 -10 18 -7 3 3 -2 9 -12 12 -14 6 -15 5 -6 -5z"/>
<path d="M2630 1346 c0 -2 8 -10 18 -17 15 -13 16 -12 3 4 -13 16 -21 21 -21
13z"/>
<path d="M3886 1338 c3 -5 10 -6 15 -3 13 9 11 12 -6 12 -8 0 -12 -4 -9 -9z"/>
<path d="M1220 1330 c-9 -6 -10 -10 -3 -10 6 0 15 5 18 10 8 12 4 12 -15 0z"/>
<path d="M1258 1313 c7 -3 16 -2 19 1 4 3 -2 6 -13 5 -11 0 -14 -3 -6 -6z"/>
<path d="M360 1299 c0 -5 5 -7 10 -4 6 3 10 8 10 11 0 2 -4 4 -10 4 -5 0 -10
-5 -10 -11z"/>
<path d="M1350 1299 c-13 -9 -13 -10 1 -6 9 3 23 0 30 -6 11 -10 11 -9 0 6 -7
9 -14 17 -15 17 0 0 -8 -5 -16 -11z"/>
<path d="M3826 1297 c3 -10 9 -15 12 -12 3 3 0 11 -7 18 -10 9 -11 8 -5 -6z"/>
<path d="M1808 1283 c7 -3 16 -2 19 1 4 3 -2 6 -13 5 -11 0 -14 -3 -6 -6z"/>
<path d="M381 1276 c2 -2 15 -9 29 -15 24 -11 24 -11 6 3 -16 13 -49 24 -35
12z"/>
<path d="M3114 1272 l-41 -7 25 -54 c46 -97 207 -201 312 -201 106 0 186 38
204 96 9 29 -43 98 -92 123 -21 10 -64 24 -97 30 -75 14 -257 22 -311 13z"/>
<path d="M1805 1259 c-4 -6 -5 -12 -2 -15 2 -3 7 2 10 11 7 17 1 20 -8 4z"/>
<path d="M3710 1261 c0 -6 4 -13 10 -16 6 -3 7 1 4 9 -7 18 -14 21 -14 7z"/>
<path d="M3820 1260 c-8 -5 -12 -12 -9 -15 4 -3 12 1 19 10 14 17 11 19 -10 5z"/>
<path d="M370 1236 c0 -2 8 -10 18 -17 15 -13 16 -12 3 4 -13 16 -21 21 -21
13z"/>
<path d="M3767 1229 c-9 -5 -21 -8 -25 -5 -5 3 -9 -1 -9 -9 0 -19 0 -19 39 5
33 20 29 28 -5 9z"/>
<path d="M3070 1217 c0 -14 24 -57 32 -57 5 0 1 12 -9 28 -22 35 -23 36 -23
29z"/>
<path d="M3031 1201 c-22 -6 -22 -8 -7 -20 9 -8 19 -11 23 -7 3 3 0 6 -7 6 -9
0 -7 5 6 15 21 16 20 16 -15 6z"/>
<path d="M2990 1191 c0 -6 4 -13 10 -16 6 -3 7 1 4 9 -7 18 -14 21 -14 7z"/>
<path d="M370 1174 c0 -8 5 -12 10 -9 6 4 8 11 5 16 -9 14 -15 11 -15 -7z"/>
<path d="M385 1150 c-3 -4 5 -6 17 -3 22 4 22 4 -2 -12 l-25 -16 25 7 c13 4
30 12 36 19 10 9 6 12 -17 13 -16 0 -31 -3 -34 -8z"/>
<path d="M1638 1115 c-16 -13 -28 -27 -28 -31 0 -4 8 0 18 9 10 10 22 14 27
10 4 -5 5 -3 1 4 -3 6 2 16 11 22 10 6 14 10 8 10 -5 0 -22 -11 -37 -24z"/>
<path d="M3116 1128 c3 -5 10 -6 15 -3 13 9 11 12 -6 12 -8 0 -12 -4 -9 -9z"/>
<path d="M400 1105 c-10 -12 -10 -15 1 -15 11 0 11 -3 -1 -11 -13 -9 -13 -10
0 -6 8 2 15 8 15 13 0 5 4 15 8 22 11 17 -8 15 -23 -3z"/>
<path d="M1740 1096 c7 -7 13 -7 20 0 6 6 3 10 -10 10 -13 0 -16 -4 -10 -10z"/>
<path d="M3111 1100 c6 -5 18 -6 26 -3 9 4 11 0 7 -13 -5 -15 -4 -16 4 -4 14
19 7 28 -24 28 -17 0 -22 -3 -13 -8z"/>
<path d="M538 1092 c7 -5 10 -17 6 -28 -4 -14 -3 -15 4 -5 7 9 12 10 16 2 4
-6 -3 -15 -16 -20 -23 -10 -23 -10 -1 -10 12 -1 23 5 26 12 5 15 -21 57 -37
57 -7 0 -6 -3 2 -8z"/>
<path d="M3000 1085 c0 -7 30 -13 34 -7 3 4 -4 9 -15 9 -10 1 -19 0 -19 -2z"/>
<path d="M3085 1081 c-3 -5 -2 -12 3 -15 5 -3 9 1 9 9 0 17 -3 19 -12 6z"/>
<path d="M470 1076 c0 -2 6 -9 14 -15 10 -9 17 -7 27 6 13 16 12 17 -3 4 -12
-9 -18 -10 -18 -2 0 6 -4 11 -10 11 -5 0 -10 -2 -10 -4z"/>
<path d="M1719 1063 c-13 -16 -12 -17 4 -4 16 13 21 21 13 21 -2 0 -10 -8 -17
-17z"/>
<path d="M3046 1065 c-3 -10 -2 -13 4 -10 7 4 9 -3 6 -19 -3 -15 -1 -24 4 -21
8 5 7 52 -2 61 -3 3 -8 -2 -12 -11z"/>
<path d="M413 1059 c-17 -17 14 -68 41 -69 6 0 1 6 -9 14 -16 11 -17 16 -7 29
11 13 10 15 -10 9 -21 -5 -22 -4 -9 11 15 19 11 23 -6 6z"/>
<path d="M1536 1055 c-11 -8 -16 -15 -10 -15 5 0 18 7 28 15 11 8 16 15 10 15
-5 0 -18 -7 -28 -15z"/>
<path d="M3194 1054 c-18 -14 -18 -15 4 -4 12 6 22 13 22 15 0 8 -5 6 -26 -11z"/>
<path d="M1614 1049 c-5 -8 -3 -9 6 -4 7 4 16 2 22 -6 8 -12 9 -12 6 0 -6 20
-24 25 -34 10z"/>
<path d="M3656 1045 c4 -8 8 -15 10 -15 2 0 4 7 4 15 0 8 -4 15 -10 15 -5 0
-7 -7 -4 -15z"/>
<path d="M466 1041 c-3 -5 1 -14 8 -20 10 -8 16 -9 21 -1 3 6 11 7 17 4 7 -4
8 -2 4 5 -6 9 -11 9 -22 0 -13 -10 -18 -6 -15 14 1 10 -7 9 -13 -2z"/>
<path d="M593 1017 c-2 -15 0 -18 6 -8 5 7 14 10 20 7 6 -4 8 -12 5 -18 -4 -6
-2 -8 4 -4 6 3 13 2 17 -4 3 -5 1 -10 -5 -10 -6 0 -18 -7 -26 -15 -9 -8 -31
-15 -50 -15 -19 0 -33 -4 -29 -9 3 -5 0 -13 -6 -17 -19 -12 12 -23 38 -13 13
5 23 5 23 0 0 -13 -45 -22 -66 -14 -13 5 -15 3 -9 -8 4 -8 -1 -5 -12 6 l-20
20 21 9 c14 5 17 10 8 13 -7 3 -19 0 -26 -6 -10 -9 -15 -8 -20 5 -4 9 -9 14
-12 11 -9 -9 47 -77 63 -77 8 0 12 -4 9 -9 -3 -4 3 -16 13 -25 17 -15 20 -14
59 24 23 21 42 42 42 46 0 4 -3 4 -6 1 -4 -4 -19 1 -35 10 -24 14 -30 15 -45
2 -15 -12 -17 -12 -12 1 2 8 18 17 34 21 16 3 42 14 57 23 23 15 30 16 43 5 9
-7 21 -14 28 -15 27 -5 95 -41 89 -48 -4 -4 0 -4 10 0 28 10 20 21 -25 33 -39
10 -111 48 -163 86 -19 13 -21 13 -22 -8z m22 -127 c3 -5 1 -10 -4 -10 -6 0
-11 5 -11 10 0 6 2 10 4 10 3 0 8 -4 11 -10z m-25 -8 c0 -20 -28 -45 -43 -39
-25 9 -10 39 15 31 14 -4 18 -2 14 5 -4 6 -2 11 3 11 6 0 11 -4 11 -8z"/>
<path d="M1425 1004 c-73 -36 -71 -39 5 -8 46 18 92 45 75 43 -6 0 -41 -16
-80 -35z"/>
<path d="M3020 1035 c0 -14 34 -69 58 -97 28 -32 90 -80 79 -61 -4 6 -1 14 5
16 7 3 1 6 -14 6 -18 1 -28 6 -28 16 0 8 -7 15 -15 15 -8 0 -16 5 -16 10 -1 6
-2 16 -3 23 0 6 -8 12 -16 12 -8 0 -19 15 -25 33 -5 17 -13 32 -17 32 -4 0 -8
-2 -8 -5z"/>
<path d="M3586 1031 c-4 -5 3 -7 14 -4 23 6 26 13 6 13 -8 0 -17 -4 -20 -9z"/>
<path d="M1615 1019 c-4 -6 -5 -12 -2 -15 2 -3 7 2 10 11 7 17 1 20 -8 4z"/>
<path d="M3190 1016 c7 -7 14 -6 21 1 9 9 7 12 -9 10 -14 -1 -18 -5 -12 -11z"/>
<path d="M3637 1024 c7 -3 9 -12 6 -20 -3 -7 -9 -12 -13 -9 -5 3 -11 1 -14 -4
-3 -5 0 -11 8 -14 8 -3 18 4 24 18 11 24 7 36 -12 34 -7 0 -6 -2 1 -5z"/>
<path d="M553 1010 c-28 -11 -29 -16 -3 -16 11 0 22 6 24 13 3 7 4 13 3 12 -1
0 -12 -4 -24 -9z"/>
<path d="M3069 1003 c-13 -16 -12 -17 4 -4 9 7 17 15 17 17 0 8 -8 3 -21 -13z"/>
<path d="M3279 1004 c-9 -11 -15 -12 -26 -3 -7 7 -16 9 -19 6 -3 -3 4 -11 17
-17 18 -10 23 -10 30 3 8 14 14 13 58 -1 32 -10 51 -22 55 -34 3 -14 0 -18
-10 -14 -11 4 -12 2 -2 -14 15 -24 18 -21 21 24 3 28 0 36 -14 36 -9 0 -35 6
-57 14 -35 13 -42 13 -53 0z"/>
<path d="M3515 1000 c-27 -9 -53 -15 -57 -13 -15 8 -47 -17 -42 -32 4 -8 10
-12 15 -9 5 3 14 2 20 -2 8 -4 7 -9 -2 -15 -11 -7 -10 -9 4 -9 30 0 16 34 -18
43 -16 4 -15 5 6 6 32 1 117 30 125 42 3 5 4 8 2 8 -2 -1 -25 -9 -53 -19z"/>
<path d="M505 1000 c3 -5 8 -10 11 -10 2 0 4 5 4 10 0 6 -5 10 -11 10 -5 0 -7
-4 -4 -10z"/>
<path d="M1637 996 c-4 -10 -1 -13 8 -9 8 3 12 9 9 14 -7 12 -11 11 -17 -5z"/>
<path d="M3091 993 c-1 -6 3 -14 9 -18 5 -3 7 -13 4 -23 -4 -12 -3 -13 3 -4
11 15 43 5 43 -13 0 -7 -6 -15 -12 -18 -7 -3 -3 -4 8 -4 19 1 21 5 13 24 -5
14 -5 23 1 23 6 0 10 -4 10 -8 0 -5 11 -14 24 -20 20 -9 24 -8 21 6 -2 9 -4
20 -4 25 -1 4 -6 7 -12 7 -8 0 -8 -5 1 -15 8 -9 9 -15 2 -15 -6 0 -14 4 -17
10 -3 5 -15 15 -27 21 -16 8 -19 8 -13 -1 5 -8 3 -11 -6 -8 -8 3 -13 12 -11
22 2 9 -2 16 -8 16 -6 0 -8 -4 -5 -10 3 -5 2 -10 -4 -10 -5 0 -12 6 -14 13 -4
9 -6 9 -6 0z"/>
<path d="M1470 978 c0 -9 -6 -19 -12 -21 -10 -4 -10 -6 0 -6 14 -1 28 26 18
36 -3 4 -6 -1 -6 -9z"/>
<path d="M1590 980 c-9 -6 -10 -10 -3 -10 6 0 15 5 18 10 8 12 4 12 -15 0z"/>
<path d="M3298 983 c7 -3 16 -2 19 1 4 3 -2 6 -13 5 -11 0 -14 -3 -6 -6z"/>
<path d="M446 972 c-9 -15 22 -19 73 -10 24 4 47 5 52 2 5 -3 9 0 9 5 0 13
-10 13 -67 2 -25 -5 -46 -4 -51 1 -6 6 -12 6 -16 0z"/>
<path d="M3332 958 c2 -12 -3 -23 -11 -26 -10 -3 -12 0 -8 12 4 9 2 16 -3 16
-15 0 -12 -26 4 -39 11 -9 15 -8 21 6 12 27 13 53 3 53 -5 0 -8 -10 -6 -22z"/>
<path d="M1235 942 c-79 -23 -109 -26 -248 -27 -86 0 -157 -2 -157 -5 0 -5 11
-6 112 -10 37 -1 65 -6 62 -11 -3 -5 4 -5 18 0 13 5 61 14 108 20 47 6 117 22
155 35 92 32 63 31 -50 -2z"/>
<path d="M3230 961 c0 -6 4 -13 10 -16 6 -3 7 1 4 9 -7 18 -14 21 -14 7z"/>
<path d="M3515 951 c2 -9 4 -23 5 -31 1 -11 3 -11 7 -2 2 6 9 10 14 6 5 -3 9
0 9 5 0 6 -8 11 -17 12 -16 0 -15 1 1 8 19 7 19 8 -1 13 -16 4 -20 1 -18 -11z"/>
<path d="M1550 933 l-25 -25 28 17 c15 10 27 21 27 26 0 12 -2 11 -30 -18z"/>
<path d="M3265 950 c-3 -5 -2 -10 4 -10 5 0 13 5 16 10 3 6 2 10 -4 10 -5 0
-13 -4 -16 -10z"/>
<path d="M3480 945 c0 -8 2 -15 4 -15 2 0 6 7 10 15 3 8 1 15 -4 15 -6 0 -10
-7 -10 -15z"/>
<path d="M665 920 c-3 -5 -3 -14 0 -20 3 -5 1 -10 -5 -10 -6 0 -9 -4 -5 -9 3
-6 14 -8 25 -6 11 2 20 -1 20 -6 0 -6 5 -7 11 -3 8 4 7 9 -2 15 -7 4 -17 5
-21 3 -13 -8 -9 10 5 26 9 11 8 11 -7 0 -18 -14 -19 -13 -13 3 7 18 2 23 -8 7z"/>
<path d="M3247 908 c9 -10 17 -18 19 -18 1 0 2 8 1 18 0 10 -9 18 -19 18 -16
0 -16 -2 -1 -18z"/>
<path d="M3345 919 c-11 -16 -1 -19 13 -3 7 8 8 14 3 14 -5 0 -13 -5 -16 -11z"/>
<path d="M3420 915 c9 -10 9 -15 1 -16 -6 -1 -16 -2 -23 -3 -6 0 -13 -7 -16
-14 -5 -16 15 -12 39 7 17 14 15 41 -3 41 -6 0 -5 -6 2 -15z"/>
<path d="M1315 910 c-3 -5 -1 -10 4 -10 6 0 11 5 11 10 0 6 -2 10 -4 10 -3 0
-8 -4 -11 -10z"/>
<path d="M1488 913 c6 -2 10 -9 7 -14 -4 -5 1 -6 10 -2 13 5 14 7 3 14 -7 5
-17 8 -23 8 -5 0 -4 -3 3 -6z"/>
<path d="M3187 907 c-6 -17 16 -47 34 -47 11 1 11 3 -2 13 -9 7 -14 17 -12 24
6 16 -14 26 -20 10z"/>
<path d="M710 900 c0 -5 7 -10 16 -10 8 0 12 -4 9 -10 -3 -5 -1 -10 4 -10 18
0 12 19 -9 30 -14 7 -20 7 -20 0z"/>
<path d="M3226 896 c3 -8 13 -17 22 -21 13 -5 13 -2 -3 15 -21 24 -26 25 -19
6z"/>
<path d="M3450 906 c0 -2 7 -7 16 -10 8 -3 12 -2 9 4 -6 10 -25 14 -25 6z"/>
<path d="M1455 880 c-3 -6 1 -7 9 -4 18 7 21 14 7 14 -6 0 -13 -4 -16 -10z"/>
<path d="M765 870 c-3 -6 1 -7 9 -4 18 7 21 14 7 14 -6 0 -13 -4 -16 -10z"/>
<path d="M905 871 c-3 -6 5 -15 17 -21 21 -10 21 -10 6 3 -10 8 -15 17 -11 20
3 4 4 7 0 7 -3 0 -8 -4 -12 -9z"/>
<path d="M3427 873 c-3 -5 8 -8 23 -8 15 0 26 3 23 8 -2 4 -13 7 -23 7 -10 0
-21 -3 -23 -7z"/>
<path d="M3500 860 c6 -11 13 -20 16 -20 2 0 0 9 -6 20 -6 11 -13 20 -16 20
-2 0 0 -9 6 -20z"/>
<path d="M601 839 c-18 -17 -25 -29 -18 -32 13 -5 39 17 31 26 -2 2 4 10 13
18 16 13 17 12 4 -3 -8 -11 -9 -18 -3 -18 6 0 14 5 17 10 3 6 14 9 23 9 15 -1
15 -2 0 -6 -10 -2 -18 -9 -18 -14 0 -5 -7 -9 -15 -9 -8 0 -15 -5 -15 -11 0 -5
10 -9 23 -7 18 2 21 -1 19 -19 -2 -17 2 -23 15 -23 15 0 16 2 3 11 -12 8 -12
12 -2 16 10 4 9 9 -4 24 -19 21 -6 26 16 7 12 -11 12 -10 1 5 -7 9 -12 17 -10
18 2 0 17 2 33 4 15 2 31 7 35 11 3 4 -4 5 -16 2 -11 -3 -40 -2 -62 2 -36 6
-44 4 -70 -21z"/>
<path d="M835 860 c3 -4 -10 -7 -27 -6 -24 1 -34 -4 -36 -18 -2 -10 2 -23 9
-30 9 -8 10 -8 5 2 -4 6 -1 19 8 27 17 17 30 20 20 4 -5 -8 -1 -8 14 0 27 14
35 14 26 -1 -4 -7 -3 -8 4 -4 18 11 14 23 -8 29 -11 3 -18 2 -15 -3z"/>
<path d="M1415 860 c-3 -6 1 -7 9 -4 18 7 21 14 7 14 -6 0 -13 -4 -16 -10z"/>
<path d="M1306 845 c-11 -8 -15 -15 -9 -15 7 0 15 5 18 10 4 6 11 7 17 4 7 -4
8 -2 4 4 -9 14 -7 15 -30 -3z"/>
<path d="M3388 845 c41 -19 41 -25 -3 -23 -19 1 -38 -1 -41 -4 -3 -3 12 -6 33
-6 41 0 83 21 83 41 0 8 -3 8 -8 2 -8 -11 -32 -12 -72 -2 -17 5 -15 2 8 -8z"/>
<path d="M874 829 c-13 -14 -27 -19 -46 -17 -15 3 -25 1 -22 -4 3 -4 12 -8 19
-8 9 0 12 -7 9 -17 -5 -17 -5 -17 6 -1 6 9 16 16 23 14 6 -1 8 -1 4 2 -13 7
13 30 31 27 9 -1 11 0 4 2 -7 3 -10 9 -7 14 11 16 -1 10 -21 -12z"/>
<path d="M1342 829 c-24 -11 -50 -18 -58 -15 -8 3 -12 1 -9 -4 3 -5 -7 -12
-22 -16 -47 -11 -123 -36 -123 -41 0 -9 181 49 235 76 53 26 33 26 -23 0z"/>
<path d="M737 834 c-3 -4 -2 -15 4 -25 7 -14 6 -20 -3 -23 -37 -12 -40 -15
-13 -13 18 1 29 -3 28 -10 -3 -13 34 -5 43 9 4 6 -2 8 -14 4 -11 -4 -23 -2
-27 4 -3 5 -1 10 5 10 6 0 4 7 -5 16 -13 14 -14 19 -3 25 7 5 8 9 2 9 -6 0
-14 -3 -17 -6z"/>
<path d="M965 800 c-10 -11 -13 -20 -7 -20 7 0 12 5 12 10 0 6 10 15 23 20 14
6 16 9 6 9 -9 1 -24 -8 -34 -19z"/>
<path d="M1067 809 c7 -7 15 -10 18 -7 3 3 -2 9 -12 12 -14 6 -15 5 -6 -5z"/>
<path d="M1020 795 c0 -8 4 -15 10 -15 5 0 7 7 4 15 -4 8 -8 15 -10 15 -2 0
-4 -7 -4 -15z"/>
<path d="M986 783 c-6 -14 -5 -15 5 -6 7 7 10 15 7 18 -3 3 -9 -2 -12 -12z"/>
<path d="M908 770 c12 -10 18 -21 14 -25 -4 -5 -1 -5 7 0 9 5 19 1 29 -11 12
-15 14 -16 9 -2 -3 9 -1 19 6 22 7 3 6 5 -3 4 -22 -3 -61 12 -56 21 3 4 -2 8
-11 8 -13 0 -12 -4 5 -17z"/>
<path d="M1066 777 c3 -10 9 -15 12 -12 3 3 0 11 -7 18 -10 9 -11 8 -5 -6z"/>
<path d="M855 770 c-3 -6 1 -7 9 -4 18 7 21 14 7 14 -6 0 -13 -4 -16 -10z"/>
<path d="M803 755 c-3 -9 -3 -18 -1 -21 3 -3 8 4 11 16 6 23 -1 27 -10 5z"/>
<path d="M1015 758 c4 -11 0 -18 -12 -21 -15 -4 -16 -5 -1 -6 22 -1 33 18 19
32 -9 9 -11 8 -6 -5z"/>
<path d="M1073 743 c9 -2 25 -2 35 0 9 3 1 5 -18 5 -19 0 -27 -2 -17 -5z"/>
<path d="M928 723 c7 -3 16 -2 19 1 4 3 -2 6 -13 5 -11 0 -14 -3 -6 -6z"/>
<path d="M2502 998 c-126 -46 -148 -63 -28 -22 42 14 85 26 96 27 11 1 20 4
20 8 0 4 12 12 28 17 15 6 20 10 12 10 -8 0 -66 -18 -128 -40z"/>
<path d="M2548 973 c7 -3 16 -2 19 1 4 3 -2 6 -13 5 -11 0 -14 -3 -6 -6z"/>
<path d="M2585 970 c3 -5 8 -10 11 -10 2 0 4 5 4 10 0 6 -5 10 -11 10 -5 0 -7
-4 -4 -10z"/>
<path d="M2555 950 c-16 -7 -17 -9 -3 -9 9 -1 20 4 23 9 7 11 7 11 -20 0z"/>
<path d="M2298 926 c-32 -11 -58 -24 -58 -28 0 -5 27 4 131 45 41 16 -23 2
-73 -17z"/>
<path d="M2390 930 c-13 -8 -12 -10 3 -10 9 0 17 5 17 10 0 12 -1 12 -20 0z"/>
<path d="M2490 930 c-8 -5 -10 -10 -5 -10 6 0 17 5 25 10 8 5 11 10 5 10 -5 0
-17 -5 -25 -10z"/>
<path d="M2346 908 c3 -5 10 -6 15 -3 13 9 11 12 -6 12 -8 0 -12 -4 -9 -9z"/>
<path d="M2425 910 c3 -5 8 -10 11 -10 2 0 4 5 4 10 0 6 -5 10 -11 10 -5 0 -7
-4 -4 -10z"/>
<path d="M2210 889 c0 -5 5 -7 10 -4 6 3 10 8 10 11 0 2 -4 4 -10 4 -5 0 -10
-5 -10 -11z"/>
<path d="M2150 876 c0 -2 7 -7 16 -10 8 -3 12 -2 9 4 -6 10 -25 14 -25 6z"/>
<path d="M2304 865 c-17 -13 -16 -14 16 -3 43 14 49 18 24 18 -11 0 -29 -7
-40 -15z"/>
<path d="M2234 856 c11 -9 24 -16 30 -16 12 0 7 5 -24 19 -24 11 -24 11 -6 -3z"/>
<path d="M2090 849 c0 -5 5 -7 10 -4 6 3 10 8 10 11 0 2 -4 4 -10 4 -5 0 -10
-5 -10 -11z"/>
<path d="M2060 846 c0 -2 7 -9 15 -16 13 -11 14 -10 9 4 -5 14 -24 23 -24 12z"/>
<path d="M1936 805 c-88 -29 -101 -37 -117 -66 -10 -19 -18 -38 -18 -44 0 -5
6 1 13 14 10 18 15 20 20 10 3 -8 4 -5 1 6 -4 18 7 50 16 44 2 -1 38 8 79 21
41 13 83 24 92 23 10 0 15 3 13 7 -3 5 1 11 7 13 42 17 -22 0 -106 -28z"/>
<path d="M2135 821 c-3 -5 -2 -12 3 -15 5 -3 9 1 9 9 0 17 -3 19 -12 6z"/>
<path d="M2170 820 c-13 -8 -13 -10 2 -10 9 0 20 5 23 10 8 13 -5 13 -25 0z"/>
<path d="M1958 784 c-16 -8 -28 -17 -28 -20 0 -2 9 0 19 6 26 13 52 14 31 0
-8 -5 -10 -10 -4 -10 7 0 22 9 35 21 22 19 22 19 2 10 -12 -6 -23 -7 -25 -2
-2 5 -15 3 -30 -5z"/>
<path d="M2050 793 c0 -5 -11 -16 -25 -23 -14 -7 -23 -15 -21 -17 2 -3 15 1
28 8 12 7 31 13 40 14 23 2 32 11 19 20 -6 3 -11 1 -11 -6 0 -8 -4 -8 -15 1
-8 7 -15 8 -15 3z"/>
<path d="M1880 750 c0 -5 5 -10 11 -10 5 0 7 5 4 10 -3 6 -8 10 -11 10 -2 0
-4 -4 -4 -10z"/>
<path d="M1914 751 c5 -8 3 -17 -5 -23 -10 -7 -7 -8 11 -3 14 3 30 7 37 7 6 1
9 8 6 16 -5 11 -7 11 -14 1 -6 -10 -11 -10 -25 2 -14 11 -16 11 -10 0z"/>
<path d="M1269 583 l-24 -28 28 24 c15 14 27 26 27 28 0 8 -8 1 -31 -24z"/>
<path d="M1054 588 c-4 -7 -4 -10 1 -6 4 4 15 2 24 -5 14 -11 14 -10 2 6 -16
20 -18 21 -27 5z"/>
<path d="M1024 548 l-19 -23 23 19 c21 18 27 26 19 26 -2 0 -12 -10 -23 -22z"/>
<path d="M1219 524 c-26 -26 -27 -26 -55 -8 -15 11 -25 13 -21 7 5 -8 3 -13
-5 -13 -10 0 -9 -3 2 -9 8 -6 18 -7 23 -4 4 3 16 -2 25 -11 31 -29 80 -66 88
-66 4 0 0 6 -11 13 -11 9 -15 19 -10 27 5 9 4 11 -3 6 -7 -4 -21 -1 -32 7 -18
13 -19 15 -5 27 15 13 39 50 33 50 -2 0 -15 -12 -29 -26z"/>
<path d="M1390 546 c0 -2 8 -10 18 -17 15 -13 16 -12 3 4 -13 16 -21 21 -21
13z"/>
<path d="M989 503 c-13 -16 -12 -17 4 -4 9 7 17 15 17 17 0 8 -8 3 -21 -13z"/>
<path d="M1252 508 c2 -7 -3 -12 -10 -10 -8 1 -11 -2 -7 -8 3 -5 10 -10 15
-10 12 0 20 29 9 35 -5 4 -8 1 -7 -7z"/>
<path d="M1398 498 c-9 -5 -6 -7 9 -5 12 2 25 6 28 8 8 9 -23 6 -37 -3z"/>
<path d="M1016 481 c-4 -5 3 -7 14 -4 23 6 26 13 6 13 -8 0 -17 -4 -20 -9z"/>
<path d="M960 464 c0 -6 10 -20 23 -31 22 -21 56 -18 70 4 8 12 -35 14 -49 2
-9 -7 -17 -3 -28 13 -9 12 -16 18 -16 12z m77 -30 c-3 -3 -12 -4 -19 -1 -8 3
-5 6 6 6 11 1 17 -2 13 -5z"/>
<path d="M1075 450 c3 -5 8 -10 11 -10 2 0 4 5 4 10 0 6 -5 10 -11 10 -5 0 -7
-4 -4 -10z"/>
<path d="M1145 450 c3 -5 8 -10 11 -10 2 0 4 5 4 10 0 6 -5 10 -11 10 -5 0 -7
-4 -4 -10z"/>
<path d="M1090 434 c-17 -9 -20 -14 -9 -14 9 0 22 7 29 15 15 18 13 18 -20 -1z"/>
<path d="M1112 417 c-12 -13 -22 -29 -22 -36 0 -7 -5 -9 -11 -6 -6 4 -8 13 -5
21 3 9 0 11 -11 7 -11 -4 -14 -2 -9 5 5 8 2 10 -8 6 -12 -5 -13 -10 -4 -24 17
-26 48 -32 56 -12 7 21 28 43 34 37 3 -3 5 2 5 10 0 19 0 19 -25 -8z"/>
<path d="M1347 409 c-11 -15 -16 -17 -20 -7 -3 7 -4 3 -4 -9 1 -13 2 -23 3
-23 2 0 12 14 24 30 12 17 19 30 16 30 -3 0 -11 -9 -19 -21z"/>
</g>
</svg>
